<svg id="footer-logo" xmlns:rdf="http://www.w3.org/1999/02/22-rdf-syntax-ns#" style="shape-rendering:smoothEdges" xmlns="http://www.w3.org/2000/svg"  version="1.1" xmlns:cc="http://creativecommons.org/ns#" xmlns:dc="http://purl.org/dc/elements/1.1/" viewBox="0 0 726.46564 365.30839">
 <title id="title3391">tc-logo</title>
 <flowRoot id="flowRoot3355" style="letter-spacing:0px;font-family:sans-serif;font-size:40px;line-height:125%;word-spacing:0px;fill:#000000" xml:space="preserve" transform="translate(-.00000814 -687)"><flowRegion id="flowRegion3357"><rect id="rect3359" y="780" x="134" width="455" height="98.1"/></flowRegion><flowPara id="flowPara3361"/></flowRoot>
 <flowRoot id="flowRoot3370" style="letter-spacing:0px;font-family:sans-serif;font-size:40px;line-height:125%;word-spacing:0px;fill:#000000" xml:space="preserve" transform="translate(-.00000814 -687)"><flowRegion id="flowRegion3372"><rect id="rect3374" y="905" x="250" width="205" height="53.5"/></flowRegion><flowPara id="flowPara3376"/></flowRoot>
 <flowRoot id="flowRoot3382" style="letter-spacing:0px;font-family:sans-serif;font-size:40px;line-height:125%;word-spacing:0px;fill:#000000" xml:space="preserve" transform="translate(-.00000814 -687)"><flowRegion id="flowRegion3384"><rect id="rect3386" y="575" x="250" width="4.46" height="93.6"/></flowRegion><flowPara id="flowPara3388"/></flowRoot>
 <flowRoot id="flowRoot3379" style="letter-spacing:0px;font-family:sans-serif;font-size:10px;line-height:125%;word-spacing:0px;fill:#000000" xml:space="preserve" transform="translate(-.00000814 -687)"><flowRegion id="flowRegion3381"><rect id="rect3383" y="992" x="-220" width="40" height="20"/></flowRegion><flowPara id="flowPara3385"/></flowRoot>
 <path id="path4519" style="stroke:#000000;stroke-width:1.55px;fill:none" d="m695 104z"/>
 <path id="path4521" style="stroke:#000000;stroke-width:1.55px;fill:none" d="m710 187z"/>
 <path id="path4523" style="fill:#ff0000" d="m0.918 189c7.09-3 362-145 363-145 0.501 0-0.0401 33.1-0.0401 73.1v72.7l-181-0.0743c-99.2 0-183 0-182-1z"/>
 <path id="path4525" style="fill:#0000ff" d="m364 117c0-6.71 0.00089-13.2 0.004-19.4 0.0178-30.8 0.102-53.7 0.477-53.7 0.45 0.0092 82.2 33 181 73.1l180 72.9-181 0.0517-181 0.0518v-73z"/>
 <path id="path4527" d="m70.1 136c0-2.33-0.508-4.17-1.42-5.16-0.475-0.513-0.864-1.15-0.864-1.41 0-0.264-0.173-0.479-0.385-0.479-0.719 0-1.45-3.54-1.45-7.05 0-2.92-0.113-3.45-0.686-3.23-0.377 0.146-0.686 0.435-0.686 0.643 0 0.869-3.7 5.86-5.51 7.44-1.18 1.03-3.25 2.15-5.2 2.82-7.37 2.53-7.87 2.62-7.15 1.26 0.604-1.13 0.609-4.4 0.0116-6.47-0.645-2.24-0.676-5.94-0.0543-6.56 0.763-0.767 0.634-1.42-0.407-2.08-0.792-0.497-1.17-0.414-2.62 0.579-0.934 0.638-2.04 1.16-2.45 1.16-0.414 0-0.991 0.288-1.28 0.64-0.291 0.352-1.19 0.792-2 0.978-1.62 0.372-13.1 0.848-13.1 0.542 0-0.105 0.721-0.959 1.6-1.9 1.31-1.39 1.6-2.06 1.6-3.64 0-1.06 0.412-2.7 0.915-3.65 0.503-0.944 0.915-2 0.915-2.34 0-0.342 1.12-1.73 2.5-3.09 1.37-1.36 2.43-2.54 2.34-2.63-0.0884-0.0889-2.14 0.368-4.56 1.01-5.09 1.36-6.62 1.43-11.1 0.489-3.71-0.778-4.74-1.12-4.74-1.56 0-0.171-0.941-0.59-2.09-0.931l-2.09-0.62 1.85-1.11c1.1-0.661 2.17-1.8 2.65-2.81 0.833-1.78 6.2-7.46 7.04-7.46 0.266 0 0.417-0.466 0.337-1.03-0.132-0.935-0.521-1.08-4.04-1.52-2.14-0.264-4.34-0.73-4.89-1.04-0.55-0.305-1.39-0.554-1.87-0.554-0.476 0-2.31-1.4-4.08-3.11-1.62-1.5-3.56-3.2-4.16-3.7-1.09-0.7-1.08-0.7 1.44-0.8 2.35-0.0189 2.65-0.151 4.18-1.82 1.1-1.2 2.57-2.14 4.46-2.83 1.55-0.568 2.92-1.21 3.06-1.43 0.133-0.216 0.641-0.393 1.13-0.393 1.6 0 1.05-1.67-0.828-2.5-2.8-1.2-3.8-1.8-5.9-3.9-1.89-1.8-2.48-2.7-4.37-6.4-0.33-0.6-0.83-1.4-1.11-1.6-0.28-0.3-0.63-0.8-0.77-1.2-0.216-0.629 0.0437-0.71 1.68-0.525 1.4 0.159 2.75-0.11 4.92-0.981 2.31-0.93 3.78-1.2 6.51-1.2 4.38 0 5.03-0.775 2.43-2.88-0.923-0.744-1.68-1.61-1.68-1.93 0-0.316-0.412-0.949-0.915-1.41-0.503-0.458-0.915-1.03-0.915-1.27 0-0.238-0.387-0.982-0.86-1.65-0.816-1.16-2.57-10.1-2.08-10.6 0.12-0.121 0.878 0.171 1.68 0.649 1.11 0.66 2.2 0.844 4.54 0.763 3.48-0.12 7.04 0.759 11 2.72 1.45 0.715 2.63 1.22 2.63 1.11 0-0.104-1.03-1.7-2.28-3.54-3.3-4.85-3.97-10.1-2.01-15.7 0.346-0.986 0.653-2.44 0.682-3.23 0.0292-0.79 0.139-1.12 0.244-0.73 0.21 0.778 4.33 3.65 5.28 3.68 0.885 0.0323 5.69 2.84 7.32 4.28 2.42 2.14 2.9 1.48 2.91-3.95 0.0087-4.4 0.108-4.91 1.45-7.48 0.794-1.52 1.84-3.19 2.33-3.71 0.484-0.522 1.25-1.73 1.7-2.68 0.865-1.83 1.58-1.58 1.59 0.57 0.0058 0.768 1.27 2.29 4.35 5.22 2.39 2.27 4.35 4.37 4.35 4.67 0.0043 0.291 0.182 0.808 0.396 1.15 0.325 0.515 0.551 0.516 1.37 0.0031 0.537-0.337 0.976-0.873 0.976-1.19 0-1.05 2.81-6.59 3.99-7.85 0.635-0.682 1.46-1.71 1.84-2.28 0.376-0.569 0.881-1.04 1.12-1.04 0.242 0 1.66-0.941 3.14-2.09l2.9-2.4-0.3 1.39c-0.338 1.7 0.127 4.4 0.894 5.2 1.24 1.29 2.67 4.3 3.09 6.5 0.241 1.28 0.693 2.49 1 2.68 0.74 0.472 2.17 0.479 2.17 0.0092 0-2.04 8.13-8.37 10.8-8.37 0.391 0 1.88-0.414 3.31-0.92 3.2-1.13 3.19-1.13 2.18-0.00308-0.731 0.812-0.781 1.38-0.442 4.95 0.36 3.79 0.377 5.45 0.0976 9.31-0.157 2.16 0.97 2.34 3.27 0.506 0.977-0.778 2.11-1.41 2.53-1.41 0.413 0 1.28-0.349 1.93-0.775 0.963-0.635 2.41-0.78 7.97-0.805 5.57-0.0246 6.6 0.07 5.74 0.525-1.44 0.758-2.56 2.59-2.56 4.19 0 2.13-1.48 6.03-3.56 9.39-0.729 1.18-0.729 1.3-0.003 2.03 0.555 0.558 0.941 0.643 1.37 0.301 0.327-0.262 1.65-0.742 2.94-1.07 2.85-0.719 8.71 0.0444 11 1.43 0.775 0.476 2.53 1.15 3.89 1.51l2.48 0.64-1.82 0.865c-1 0.476-2.03 1.28-2.29 1.79-0.258 0.51-1.04 1.67-1.73 2.57-0.692 0.905-1.26 1.79-1.26 1.97 0 0.619-1.63 2.05-4.65 4.08l-3.05 2.05 4.88 0.299c4.26 0.261 5.24 0.485 7.74 1.77 1.57 0.811 3.8 2.36 4.94 3.45s2.22 1.98 2.4 1.98c0.176 0.0062 0.825 0.401 1.44 0.878l1.12 0.868-2.12 0.32c-1.47 0.222-2.66 0.797-3.87 1.88-0.96 0.859-1.89 1.56-2.07 1.56-0.176 0.000215-1.22 0.61-2.32 1.36-1.14 0.776-3.43 1.68-5.34 2.12l-3.34 0.764 1.93 0.871c1.06 0.479 2.14 0.871 2.39 0.871 0.681 0 3.71 1.49 4.4 2.17 0.333 0.326 0.767 0.592 0.965 0.592 0.961 0 3.75 3.4 5.45 6.65 1.04 1.99 1.9 3.79 1.9 4.01 0 0.211-1.08 0.383-2.41 0.383-1.56 0-3.03 0.335-4.16 0.944-1.37 0.736-2.64 0.953-5.79 0.983-3.91 0.0371-4.05 0.076-4.33 1.18-0.157 0.628-0.223 1.17-0.148 1.2 2.35 1.04 3.02 1.78 4.67 5.13 1.07 2.17 2.04 4.98 2.36 6.89 0.303 1.77 0.712 3.94 0.908 4.83l0.357 1.61-1.58-1.21c-1.43-1.09-2.06-1.23-6.6-1.43-4.01-0.174-5.39-0.42-6.85-1.22l-1.83-1-0.807 0.993c-0.671 0.825-0.703 1.08-0.189 1.51 0.34 0.284 1.06 1.63 1.61 2.99 1.3 3.24 1.34 8.79 0.103 12.7-0.903 2.86-1.47 3.2-2.77 1.68-0.377-0.438-1.2-1.03-1.83-1.32-5.07-2.31-8.6-4.13-9.35-4.83-1.01-0.936-1.16-0.966-2.03-0.407-0.479 0.305-0.612 1.48-0.545 4.84 0.0809 4.03-0.0268 4.66-1.18 6.95-0.697 1.38-1.39 2.51-1.55 2.51-0.155 0-0.884 1.24-1.62 2.76s-1.48 2.76-1.66 2.76c-0.177 0.00054-0.457-0.718-0.62-1.6-0.187-1-0.806-1.99-1.66-2.65-0.749-0.576-2.07-1.72-2.93-2.54-0.865-0.822-1.72-1.5-1.91-1.5-0.572-0.009-2.39-3.15-2.39-4.13 0-0.939-1.12-1.25-2.08-0.574-0.264 0.186-0.87 1.68-1.35 3.33-0.766 2.64-1.26 3.38-4.23 6.33-1.85 1.83-3.6 3.34-3.89 3.34-0.293 0-1.21 0.662-2.04 1.47l-1.51 1.47v-1.41zm10.6-23.6c2.93-0.477 5.75-1.09 6.26-1.37 0.515-0.277 1.39-0.504 1.94-0.504 0.553 0 2.96-1.06 5.36-2.35 4.13-2.23 4.75-2.62 6.26-3.98 0.351-0.316 0.769-0.575 0.928-0.575 0.899 0 9.38-8.7 9.38-9.62 0-0.181 0.362-0.73 0.804-1.22s1.07-1.41 1.4-2.04c0.325-0.633 1.2-2.28 1.94-3.66 0.742-1.38 1.35-2.95 1.35-3.49 0-0.541 0.412-2.19 0.915-3.66s0.924-3.52 0.935-4.56c0.0116-1.04 0.198-2.81 0.415-3.94 0.396-2.06-0.104-8.84-0.882-12-1.45-5.84-3.09-10-4.44-11.4-0.33-0.334-0.599-0.866-0.599-1.18 0-0.903-3.19-4.97-6.42-8.19-3.44-3.43-6.97-6.13-10.5-8.05-1.38-0.751-2.93-1.59-3.43-1.87-0.877-0.489-2.35-0.929-8.92-2.66-4.04-1.06-16.6-1.13-19.9-0.11-1.26 0.388-3.83 1.07-5.72 1.52s-3.64 0.976-3.89 1.17c-0.252 0.191-1.69 1.02-3.2 1.83-4.04 2.19-8.05 5.2-10.6 7.99-0.685 0.737-1.81 1.93-2.5 2.66-0.692 0.727-1.62 1.88-2.06 2.57-0.439 0.687-0.965 1.46-1.17 1.71-0.936 1.16-4.16 7.8-5.14 10.6-1.95 5.56-2.07 19.7-0.21 24.8 0.459 1.27 0.963 3.08 1.12 4.03 0.157 0.949 0.467 1.73 0.691 1.73 0.223 0 0.546 0.442 0.716 0.983 1.15 3.64 11.5 16 13.4 16 0.247 0 0.568 0.31 0.713 0.69s0.561 0.69 0.926 0.69c0.364 0 0.731 0.174 0.815 0.386 0.302 0.763 7.54 4.41 10.4 5.26 4.27 1.25 11.7 2.54 14.9 2.58 1.51 0.0198 5.14-0.354 8.07-0.832z" style="fill:#ff0000"/>
 <path id="path4529" d="m70.9 110c-0.186-0.318-0.444-2.71-0.572-5.32-0.129-2.61-0.367-4.74-0.528-4.74-0.162 0.000138-1.69 0.911-3.41 2.02-3.64 2.36-5.75 2.67-5.75 0.838 0-1.49 0.987-2.43 5.63-5.38l3.71-2.35 0.144-2.88c0.155-3.11-0.296-3.57-2.09-2.14-1.27 1.02-2.78 0.958-3.73-0.15-1.33-1.55-0.947-2.42 1.48-3.38 1.25-0.492 2.45-1.06 2.66-1.26 0.377-0.358-5.09-3.61-7.22-4.29-1.05-0.336-1.08-0.252-0.958 2.6l0.127 2.95-1.5 0.154c-1.93 0.198-3.05-0.99-3.05-3.23 0-0.955-0.115-1.74-0.255-1.74s-1.33 0.573-2.63 1.27l-2.38 1.27-0.013 3.41c-0.0149 4.49-0.66 7.25-1.95 8.36-0.999 0.856-1.09 0.856-1.97 0.0171-0.828-0.792-0.889-1.32-0.593-5.08l0.331-4.2-5.09 2.62c-4.95 2.54-5.12 2.59-6.04 1.7-2.08-1.99-1.19-3.18 4.77-6.33l4.05-2.14-4.04-1.72c-4.86-2.07-5.53-2.64-4.62-3.95 0.978-1.41 2.84-1.13 8 1.23l4.72 2.16 2.19-1.35c1.2-0.745 2.19-1.55 2.19-1.79 0-0.239-0.754-0.905-1.68-1.48-1.87-1.16-2.15-2.5-0.8-3.79 1.17-1.12 1.44-1.06 3.64 0.695 1.03 0.828 2.06 1.5 2.27 1.5 0.496 0 0.508-7.63 0.0145-8.46-0.264-0.439-1.01-0.164-2.69 0.988l-2.32 1.6-1.14-1.4c-1.42-1.74-0.933-3.01 1.5-3.94 0.922-0.352 1.68-0.795 1.68-0.983s-1.16-0.986-2.58-1.77l-2.58-1.43-4.88 2.43c-3.98 1.98-5.18 2.37-6.52 2.1-3.04-0.602-1.83-2.37 3.3-4.82 1.77-0.846 3.21-1.65 3.21-1.78 0-0.133-1.95-1.28-4.33-2.54s-4.46-2.65-4.61-3.08c-0.433-1.19 0.823-3.24 1.99-3.24 0.562 0 2.8 0.911 4.98 2.03 2.18 1.11 4.18 2.03 4.45 2.03 0.317 0 0.37-1.48 0.151-4.26-0.303-3.84-0.249-4.3 0.556-4.74 2.08-1.14 3.26 0.976 3.75 6.72 0.223 2.63 0.624 4.38 1.14 4.99 0.712 0.844 3.96 2.86 4.6 2.86 0.142 0 0.259-1.11 0.259-2.48 0-2.16 0.141-2.51 1.09-2.77 0.601-0.159 1.6-0.15 2.22 0.0208 1.06 0.292 1.11 0.487 0.869 3.27-0.14 1.63-0.14 2.96 0.000174 2.96 0.751 0 7.8-4.39 7.8-4.86 0.000159-0.304-0.836-0.818-1.86-1.14-2.63-0.833-3.25-1.76-2.26-3.37 0.949-1.53 1.93-1.59 4.01-0.254 0.862 0.556 1.68 1.01 1.82 1.01 0.138 0 0.187-1.42 0.108-3.15l0.2-3.4-4.7-2.8c-4.46-2.64-4.69-2.86-4.55-4.32 0.212-2.28 1.35-2.18 5.69 0.502 2.11 1.31 3.9 2.29 3.98 2.19 0.0759-0.104-0.0281-2.46-0.231-5.24-0.417-5.71-0.319-5.92 2.68-5.71l1.92 0.132 0.427 5.06c0.235 2.78 0.488 5.14 0.562 5.23 0.0744 0.0946 1.62-0.76 3.43-1.9 3.9-2.45 5.88-2.72 5.88-0.808 0 1.4-2.06 3.21-6.82 5.97l-2.76 1.6v2.92c0 3.26 0.269 3.45 2.68 1.88 1.8-1.18 3.24-0.771 3.79 1.06 0.422 1.4-0.328 2.22-2.74 2.99l-2.03 0.643 1.18 1.01c1.14 0.973 6.37 3.94 6.95 3.94 0.154 0 0.214-1.31 0.133-2.91l-0.147-2.91 1.8-0.157c1.56-0.137 1.86 0.0171 2.27 1.17 0.263 0.731 0.478 1.88 0.478 2.56 0 1.51-0.0149 1.51 2.82-0.0046l2.31-1.24 0.343-4.94c0.366-5.26 0.714-6.43 2.16-7.25 0.691-0.391 1.11-0.312 1.71 0.323 0.668 0.706 0.742 1.47 0.462 4.81-0.216 2.58-0.162 3.97 0.154 3.97 0.267 0 2.56-1.06 5.09-2.35 4.46-2.28 4.63-2.32 5.55-1.44 2 1.91 1.14 3.07-4.68 6.31-1.65 0.917-2.99 1.83-2.99 2.03 0 0.202 1.61 1.11 3.58 2.02 4.14 1.91 4.96 2.68 4.08 3.8-0.947 1.21-3.3 0.883-7.42-1.02-4.46-2.06-5.93-2.15-8.84-0.542l-2.13 1.18 1.65 0.885c2.66 1.43 3.37 2.27 2.82 3.35-0.958 1.89-2.03 1.99-4.42 0.417-1.24-0.815-2.36-1.48-2.49-1.48-0.344 0-0.206 6.61 0.166 7.96l0.311 1.13 2.24-1.54c1.86-1.28 2.41-1.45 3.23-0.983 1.61 0.912 1.28 2.91-0.685 4.14-0.922 0.575-1.68 1.26-1.68 1.53 0 0.586 3.73 2.43 4.95 2.45 0.482 0.0062 2.79-0.928 5.12-2.08 3.48-1.71 4.56-2.02 5.95-1.75 1.28 0.255 1.7 0.589 1.7 1.36 0 0.793-0.871 1.44-3.84 2.85-2.11 1-3.77 2.07-3.69 2.37 0.0857 0.298 1.87 1.49 3.96 2.65s4.01 2.45 4.25 2.86c0.548 0.918-0.839 3.38-1.9 3.38-0.394 0-2.65-1.03-5.01-2.28s-4.42-2.28-4.58-2.28c-0.161 0-0.144 1.88 0.0374 4.18 0.296 3.75 0.234 4.27-0.599 5.07-0.891 0.852-0.981 0.837-2.2-0.359-0.959-0.94-1.27-1.73-1.27-3.22 0-1.09-0.14-3.39-0.311-5.12l-0.2-3.1-2.3-1.2c-3.28-1.76-3.48-1.67-3.15 1.3l0.284 2.53h-2.44-2.44l0.261-3.04c0.143-1.67 0.152-3.04 0.0198-3.04-0.792 0-7.81 4.27-7.81 4.75 0 0.321 1.08 0.989 2.39 1.48 2.56 0.96 2.83 1.5 1.65 3.28-0.921 1.39-1.91 1.42-3.94 0.111-0.862-0.556-1.67-1.01-1.8-1.01-0.125 0-0.228 1.36-0.228 3.02v3.02l3.71 2.14c4.64 2.68 6.39 4.42 6.01 5.96-0.383 1.55-2.04 1.15-6.1-1.48-1.74-1.13-3.27-2.05-3.39-2.05-0.127 0-0.231 2.23-0.231 4.96 0 3.18-0.206 5.18-0.575 5.57-0.73 0.772-3.57 0.793-4.02 0.0292zm8.42-30.3 6.64-3.56-0.197-2.64c0-1.6-0.2-4.8-0.4-7.3l-0.29-4.45-6.29-3.33-6.29-3.33-6.34 3.48-6.34 3.48-0.0101 6.4c-0.0087 5.35 0.129 6.58 0.83 7.49 0.627 0.815 11.1 7 12 7.11 0.0835 0.0123 3.14-1.58 6.79-3.54z" style="fill:#0000ff"/>
 <g id="text4531" style="fill:#ff0000" transform="scale(.989 1.01)">
  <path id="path3797" style="" d="m19.6 300h6.46v19.6h23.5v-19.6h6.46v47.8h-6.46v-22.7h-23.5v22.7h-6.46v-47.8z"/>
  <path id="path3799" style="" d="m99.2 328v2.88h-27.1q0.384 6.08 3.65 9.28 3.29 3.17 9.15 3.17 3.39 0 6.56-0.832 3.2-0.832 6.33-2.49v5.57q-3.17 1.34-6.49 2.05-3.33 0.704-6.75 0.704-8.57 0-13.6-4.99-4.99-4.99-4.99-13.5 0-8.8 4.73-13.9 4.77-5.18 12.8-5.18 7.23 0 11.4 4.67 4.22 4.64 4.22 12.6zm-5.89-1.73q-0.064-4.83-2.72-7.71-2.62-2.88-6.97-2.88-4.93 0-7.9 2.78-2.94 2.78-3.39 7.84l21-0.032z"/>
  <path id="path3801" style="" d="m125 330q-7.13 0-9.88 1.63t-2.75 5.57q0 3.13 2.05 4.99 2.08 1.82 5.63 1.82 4.89 0 7.84-3.45 2.97-3.49 2.97-9.24v-1.31h-5.85zm11.7-2.43v20.4h-5.89v-5.44q-2.02 3.26-5.02 4.83-3.01 1.54-7.36 1.54-5.5 0-8.76-3.07-3.23-3.1-3.23-8.28 0-6.05 4.03-9.12 4.06-3.07 12.1-3.07h8.25v-0.576q0-4.06-2.69-6.27-2.65-2.24-7.48-2.24-3.07 0-5.98 0.736t-5.6 2.21v-5.44q3.23-1.25 6.27-1.86 3.04-0.64 5.92-0.64 7.77 0 11.6 4.03 3.84 4.03 3.84 12.2z"/>
  <path id="path3803" style="" d="m155 302v10.2h12.1v4.57h-12.1v19.4q0 4.38 1.18 5.63 1.22 1.25 4.89 1.25h6.05v4.93h-6.05q-6.81 0-9.4-2.53-2.59-2.56-2.59-9.28v-19.4h-4.32v-4.57h4.32v-10.2h5.92z"/>
  <path id="path3805" style="" d="m175 312h5.89v35.8h-5.89v-35.8zm0-13.9h5.89v7.45h-5.89v-7.45z"/>
  <path id="path3807" style="" d="m223 326v21.6h-5.89v-21.4q0-5.09-1.98-7.61-1.98-2.53-5.95-2.53-4.77 0-7.52 3.04t-2.75 8.28v20.2h-5.92v-35.8h5.92v5.57q2.11-3.23 4.96-4.83 2.88-1.6 6.62-1.6 6.17 0 9.34 3.84 3.17 3.81 3.17 11.2z"/>
  <path id="path3809" style="" d="m258 329q0-6.4-2.65-9.92-2.62-3.52-7.39-3.52-4.73 0-7.39 3.52-2.62 3.52-2.62 9.92 0 6.36 2.62 9.88 2.65 3.52 7.39 3.52 4.77 0 7.39-3.52 2.65-3.52 2.65-9.88zm5.89 13.9q0 9.15-4.06 13.6-4.06 4.48-12.4 4.48-3.1 0-5.85-0.48-2.75-0.448-5.34-1.41v-5.73q2.59 1.41 5.12 2.08 2.53 0.672 5.15 0.672 5.79 0 8.67-3.04 2.88-3.01 2.88-9.12v-2.91q-1.82 3.17-4.67 4.73-2.85 1.57-6.81 1.57-6.59 0-10.6-5.02-4.03-5.02-4.03-13.3 0-8.32 4.03-13.3 4.03-5.02 10.6-5.02 3.97 0 6.81 1.57 2.85 1.57 4.67 4.73v-5.44h5.89v31.4z"/>
  <path id="path3811" style="" d="m307 322q-2.91 2.59-4.29 5.18-1.34 2.56-1.34 5.37 0 4.67 3.39 7.77t8.51 3.1q3.04 0 5.69-0.992 2.65-1.02 4.99-3.07l-17-17.4zm4.51-3.58 16.2 16.6q1.89-2.85 2.94-6.08 1.06-3.26 1.25-6.91h5.95q-0.384 4.22-2.05 8.35-1.66 4.13-4.64 8.16l8.92 9.12h-8.06l-4.57-4.7q-3.33 2.85-6.97 4.25-3.65 1.38-7.84 1.38-7.71 0-12.6-4.38-4.89-4.41-4.89-11.3 0-4.09 2.14-7.68 2.14-3.61 6.43-6.78-1.54-2.02-2.33-4-0.8-2.02-0.8-3.93 0-5.18 3.55-8.32 3.55-3.17 9.44-3.17 2.65 0 5.28 0.576 2.65 0.576 5.37 1.73v5.82q-2.78-1.5-5.31-2.27-2.53-0.8-4.7-0.8-3.36 0-5.47 1.79-2.08 1.76-2.08 4.57 0 1.63 0.928 3.29 0.96 1.63 3.87 4.64z"/>
 </g>
 <g id="text4537" style="fill:#0000ff" transform="scale(.994 1.01)">
  <path id="path3814" style="" d="m403 305v6.85q-3.28-3.05-7.01-4.56-3.7-1.51-7.87-1.51-8.23 0-12.6 5.05-4.37 5.01-4.37 14.5 0 9.48 4.37 14.5 4.37 5.01 12.6 5.01 4.18 0 7.87-1.51 3.73-1.51 7.01-4.56v6.78q-3.41 2.31-7.23 3.47-3.79 1.16-8.03 1.16-10.9 0-17.2-6.65-6.27-6.68-6.27-18.2 0-11.6 6.27-18.2 6.27-6.68 17.2-6.68 4.31 0 8.1 1.16 3.82 1.12 7.17 3.41z"/>
  <path id="path3816" style="" d="m427 317q-4.76 0-7.52 3.73-2.76 3.7-2.76 10.2 0 6.46 2.73 10.2 2.76 3.7 7.55 3.7 4.72 0 7.49-3.73 2.76-3.73 2.76-10.2 0-6.4-2.76-10.1-2.76-3.76-7.49-3.76zm0-5.01q7.71 0 12.1 5.01 4.4 5.01 4.4 13.9 0 8.84-4.4 13.9-4.4 5.01-12.1 5.01-7.75 0-12.1-5.01-4.37-5.05-4.37-13.9 0-8.87 4.37-13.9 4.4-5.01 12.1-5.01z"/>
  <path id="path3818" style="" d="m467 317q-4.76 0-7.52 3.73-2.76 3.7-2.76 10.2 0 6.46 2.73 10.2 2.76 3.7 7.55 3.7 4.72 0 7.49-3.73 2.76-3.73 2.76-10.2 0-6.4-2.76-10.1-2.76-3.76-7.49-3.76zm0-5.01q7.71 0 12.1 5.01 4.4 5.01 4.4 13.9 0 8.84-4.4 13.9-4.4 5.01-12.1 5.01-7.75 0-12.1-5.01-4.37-5.05-4.37-13.9 0-8.87 4.37-13.9 4.4-5.01 12.1-5.01z"/>
  <path id="path3820" style="" d="m494 299h5.91v50h-5.91v-50z"/>
  <path id="path3822" style="" d="m512 313h5.91v36h-5.91v-36zm0-14h5.91v7.49h-5.91v-7.49z"/>
  <path id="path3824" style="" d="m560 327v21.7h-5.91v-21.5q0-5.11-1.99-7.65t-5.98-2.54q-4.79 0-7.55 3.05t-2.76 8.32v20.3h-5.95v-36h5.95v5.59q2.12-3.25 4.98-4.85 2.89-1.61 6.65-1.61 6.2 0 9.38 3.86 3.18 3.82 3.18 11.3z"/>
  <path id="path3826" style="" d="m596 330q0-6.43-2.67-9.96-2.64-3.54-7.42-3.54-4.76 0-7.42 3.54-2.64 3.54-2.64 9.96 0 6.4 2.64 9.93 2.67 3.54 7.42 3.54 4.79 0 7.42-3.54 2.67-3.54 2.67-9.93zm5.91 13.9q0 9.19-4.08 13.7-4.08 4.5-12.5 4.5-3.12 0-5.88-0.482-2.76-0.45-5.37-1.41v-5.75q2.6 1.41 5.14 2.09 2.54 0.675 5.17 0.675 5.82 0 8.71-3.05 2.89-3.02 2.89-9.16v-2.92q-1.83 3.18-4.69 4.76-2.86 1.57-6.85 1.57-6.62 0-10.7-5.05-4.05-5.05-4.05-13.4 0-8.36 4.05-13.4 4.05-5.05 10.7-5.05 3.99 0 6.85 1.57t4.69 4.76v-5.46h5.91v31.5z"/>
  <path id="path3828" style="" d="m671 305v6.85q-3.28-3.05-7.01-4.56-3.7-1.51-7.87-1.51-8.23 0-12.6 5.05-4.37 5.01-4.37 14.5 0 9.48 4.37 14.5 4.37 5.01 12.6 5.01 4.18 0 7.87-1.51 3.73-1.51 7.01-4.56v6.78q-3.41 2.31-7.23 3.47-3.79 1.16-8.03 1.16-10.9 0-17.2-6.65-6.27-6.68-6.27-18.2 0-11.6 6.27-18.2 6.27-6.68 17.2-6.68 4.31 0 8.1 1.16 3.82 1.12 7.17 3.41z"/>
  <path id="path3830" style="" d="m695 317q-4.76 0-7.52 3.73-2.76 3.7-2.76 10.2 0 6.46 2.73 10.2 2.76 3.7 7.55 3.7 4.72 0 7.49-3.73 2.76-3.73 2.76-10.2 0-6.4-2.76-10.1-2.76-3.76-7.49-3.76zm0-5.01q7.71 0 12.1 5.01 4.4 5.01 4.4 13.9 0 8.84-4.4 13.9-4.4 5.01-12.1 5.01-7.75 0-12.1-5.01-4.37-5.05-4.37-13.9 0-8.87 4.37-13.9 4.4-5.01 12.1-5.01z"/>
 </g>
 <text id="text4543" style="letter-spacing:0px;font-family:sans-serif;font-size:74.6px;line-height:125%;word-spacing:0px;fill:#0000ff" transform="scale(.970 1.03)" y="273.09488" x="14.092574" xml:space="preserve"><tspan id="tspan4545" y="273.09488" x="14.092574"/></text>
 <g id="text4547" style="fill:#0000ff" transform="scale(.856 1.17)">
  <path id="path3753" d="m-0.00000244 176h65.4v13.8h-23.5v57.1h-18.3v-57.1h-23.6v-13.8z"/>
  <path id="path3755" d="m104 194q-7.61 0-11.8 5.62-4.2 5.62-4.2 15.8t4.2 15.8q4.2 5.62 11.8 5.62 7.66 0 11.9-5.62 4.2-5.62 4.2-15.8t-4.2-15.8q-4.2-5.62-11.9-5.62zm0-12.1q15.6 0 24.4 8.91 8.82 8.91 8.82 24.6t-8.82 24.6q-8.82 8.91-24.4 8.91-15.5 0-24.4-8.91-8.82-8.91-8.82-24.6t8.82-24.6q8.87-8.91 24.4-8.91z"/>
  <path id="path3757" style="" d="m142 183h59.5v12.6h-21.4v52h-16.7v-52h-21.5v-12.6z"/>
  <path id="path3759" style="" d="m242 236h-26l-4.11 11.8h-16.7l23.9-64.6h19.9l23.9 64.6h-16.7l-4.07-11.8zm-21.9-12h17.7l-8.83-25.7-8.87 25.7z"/>
  <path id="path3761" style="" d="m271 183h16.7v52h29.3v12.6h-45.9v-64.6z"/>
  <path id="path3763" style="" d="m410 244q-4.59 2.38-9.56 3.59-4.98 1.21-10.4 1.21-16.1 0-25.6-9-9.43-9.04-9.43-24.5t9.43-24.5q9.43-9.04 25.6-9.04 5.41 0 10.4 1.21 4.98 1.21 9.56 3.59v13.4q-4.63-3.16-9.13-4.63t-9.48-1.47q-8.91 0-14 5.71-5.11 5.71-5.11 15.8 0 10 5.11 15.7 5.11 5.71 14 5.71 4.98 0 9.48-1.47t9.13-4.63v13.4z"/>
  <path id="path3765" style="" d="m453 194q-7.62 0-11.8 5.63-4.2 5.63-4.2 15.8t4.2 15.8q4.2 5.63 11.8 5.63 7.66 0 11.9-5.63 4.2-5.63 4.2-15.8t-4.2-15.8q-4.2-5.63-11.9-5.63zm0-12.1q15.6 0 24.4 8.91 8.83 8.91 8.83 24.6t-8.83 24.6q-8.83 8.91-24.4 8.91-15.5 0-24.4-8.91-8.83-8.91-8.83-24.6t8.83-24.6q8.87-8.91 24.4-8.91z"/>
  <path id="path3767" style="" d="m499 183h21.2l14.7 34.6 14.8-34.6h21.2v64.6h-15.8v-47.3l-14.9 34.8h-10.6l-14.9-34.8v47.3h-15.8v-64.6z"/>
  <path id="path3769" style="" d="m587 183h45v12.6h-28.3v12h26.6v12.6h-26.6v27.4h-16.7v-64.6z"/>
  <path id="path3771" style="" d="m677 194q-7.62 0-11.8 5.63-4.2 5.63-4.2 15.8t4.2 15.8q4.2 5.63 11.8 5.63 7.66 0 11.9-5.63 4.2-5.63 4.2-15.8t-4.2-15.8q-4.2-5.63-11.9-5.63zm0-12.1q15.6 0 24.4 8.91 8.83 8.91 8.83 24.6t-8.83 24.6q-8.83 8.91-24.4 8.91-15.5 0-24.4-8.91-8.83-8.91-8.83-24.6t8.83-24.6q8.87-8.91 24.4-8.91z"/>
  <path id="path3773" style="" d="m747 211q5.24 0 7.49-1.95 2.29-1.95 2.29-6.4 0-4.41-2.29-6.32-2.25-1.9-7.49-1.9h-7.01v16.6h7.01zm-7.01 11.5v24.4h-16.7v-64.6h25.4q12.8 0 18.7 4.28 5.97 4.28 5.97 13.5 0 6.4-3.12 10.5-3.07 4.11-9.3 6.06 3.42 0.779 6.1 3.55 2.73 2.73 5.5 8.31l9.04 18.3h-17.7l-7.88-16.1q-2.38-4.85-4.85-6.62-2.42-1.77-6.49-1.77h-4.72z"/>
  <path id="path3775" d="m784 176h65.4v13.8h-23.5v57.1h-18.3v-57.1h-23.6v-13.8z"/>
 </g>
 <text id="text4557" style="letter-spacing:0px;font-family:sans-serif;font-size:59.7px;line-height:125%;word-spacing:0px;fill:#000000" transform="scale(.970 1.03)" y="378.61926" x="-23.246452" xml:space="preserve"><tspan id="tspan4559" y="378.61926" x="-23.246452"/></text>
</svg>
